<svg width="170" height="40" viewBox="0 0 170 40" fill="none" xmlns="http://www.w3.org/2000/svg">
<path d="M15.5643 0.0473633H21.4988L36.9511 39.7978H30.3447L26.1457 28.9924H10.8054L6.6624 39.7978H0L15.5643 0.0473633ZM24.914 24.3455L18.5315 6.93371L11.9251 24.3455H24.914Z" fill="white"/>
<path d="M67.2303 39.7977V29.2547H68.6064V39.7977H67.2303ZM67.2303 27.049V25.0254H68.6064V27.049H67.2303Z" fill="white"/>
<path d="M80.5006 39.7977H79.1246V33.909C79.1246 32.6679 78.9425 31.764 78.5782 31.1974C78.214 30.6173 77.6406 30.3272 76.8581 30.3272C76.3185 30.3272 75.7856 30.4622 75.2595 30.732C74.7334 30.9883 74.2679 31.3458 73.8632 31.8045C73.472 32.2497 73.1887 32.7623 73.0133 33.3424V39.7977H71.6372V29.2547H72.8919V31.6426C73.1752 31.1299 73.5462 30.6848 74.0049 30.307C74.4635 29.9158 74.9829 29.6122 75.563 29.3964C76.1431 29.1805 76.7435 29.0726 77.364 29.0726C77.9441 29.0726 78.4366 29.1805 78.8413 29.3964C79.246 29.6122 79.5698 29.9225 79.8126 30.3272C80.0554 30.7185 80.2308 31.1974 80.3387 31.764C80.4467 32.3171 80.5006 32.9377 80.5006 33.6257V39.7977Z" fill="white"/>
<path d="M86.3542 39.7977L82.0844 29.2547H83.5212L87.1232 38.4217L90.7455 29.2547H92.1013L87.8315 39.7977H86.3542Z" fill="white"/>
<path d="M98.205 40.0001C97.4495 40.0001 96.748 39.8584 96.1004 39.5751C95.4529 39.2783 94.893 38.8804 94.4209 38.3812C93.9487 37.8686 93.5777 37.2817 93.3079 36.6207C93.0515 35.9596 92.9234 35.2514 92.9234 34.4959C92.9234 33.5111 93.146 32.6072 93.5912 31.7842C94.0499 30.9613 94.6772 30.307 95.4731 29.8213C96.2691 29.3222 97.173 29.0726 98.1848 29.0726C99.2236 29.0726 100.127 29.3222 100.896 29.8213C101.679 30.3205 102.293 30.9815 102.738 31.8045C103.183 32.6139 103.406 33.5043 103.406 34.4756C103.406 34.5836 103.406 34.6915 103.406 34.7994C103.406 34.8939 103.399 34.9681 103.385 35.022H94.3601C94.4276 35.7775 94.6367 36.452 94.9875 37.0456C95.3517 37.6257 95.8171 38.0912 96.3838 38.4419C96.9639 38.7792 97.5912 38.9478 98.2657 38.9478C98.9537 38.9478 99.6013 38.7724 100.208 38.4217C100.829 38.0709 101.261 37.6122 101.503 37.0456L102.697 37.3694C102.482 37.8686 102.151 38.3205 101.706 38.7252C101.261 39.1299 100.735 39.447 100.127 39.6763C99.5338 39.8922 98.893 40.0001 98.205 40.0001ZM94.3197 34.0304H102.111C102.057 33.2615 101.847 32.5869 101.483 32.0068C101.132 31.4267 100.667 30.9748 100.087 30.651C99.5203 30.3138 98.893 30.1451 98.205 30.1451C97.517 30.1451 96.8897 30.3138 96.323 30.651C95.7564 30.9748 95.291 31.4335 94.9268 32.0271C94.576 32.6072 94.3736 33.275 94.3197 34.0304Z" fill="white"/>
<path d="M108.989 40.0001C108.126 40.0001 107.323 39.8584 106.581 39.5751C105.839 39.2918 105.198 38.8601 104.659 38.28L105.225 37.3087C105.819 37.8618 106.412 38.2665 107.006 38.5229C107.613 38.7657 108.254 38.8871 108.928 38.8871C109.751 38.8871 110.419 38.7252 110.932 38.4014C111.444 38.0642 111.701 37.5853 111.701 36.9647C111.701 36.5465 111.573 36.2294 111.316 36.0136C111.073 35.7842 110.716 35.6021 110.244 35.4672C109.785 35.3188 109.232 35.1637 108.584 35.0018C107.856 34.7994 107.242 34.5903 106.743 34.3745C106.257 34.1451 105.886 33.8618 105.63 33.5245C105.387 33.1738 105.266 32.7218 105.266 32.1687C105.266 31.4807 105.434 30.9141 105.772 30.4689C106.122 30.0102 106.594 29.6662 107.188 29.4369C107.795 29.194 108.47 29.0726 109.212 29.0726C110.021 29.0726 110.736 29.2008 111.357 29.4571C111.977 29.7134 112.483 30.0709 112.874 30.5296L112.207 31.4605C111.829 31.0288 111.377 30.7117 110.851 30.5094C110.338 30.2935 109.765 30.1856 109.131 30.1856C108.699 30.1856 108.288 30.2463 107.896 30.3677C107.505 30.4756 107.181 30.6645 106.925 30.9343C106.682 31.1907 106.561 31.5482 106.561 32.0068C106.561 32.3846 106.655 32.6814 106.844 32.8972C107.033 33.0996 107.316 33.275 107.694 33.4234C108.072 33.5583 108.537 33.7067 109.09 33.8686C109.886 34.0844 110.581 34.307 111.175 34.5364C111.768 34.7522 112.227 35.0355 112.551 35.3863C112.874 35.737 113.036 36.2294 113.036 36.8635C113.036 37.8483 112.665 38.6173 111.923 39.1704C111.181 39.7235 110.203 40.0001 108.989 40.0001Z" fill="white"/>
<path d="M120.37 39.2918C120.262 39.3323 120.093 39.4065 119.864 39.5144C119.635 39.6224 119.358 39.7168 119.034 39.7977C118.71 39.8787 118.36 39.9192 117.982 39.9192C117.591 39.9192 117.22 39.845 116.869 39.6966C116.532 39.5482 116.262 39.3256 116.06 39.0288C115.857 38.7185 115.756 38.3407 115.756 37.8955V30.3475H114.299V29.2547H115.756V25.6932H117.132V29.2547H119.56V30.3475H117.132V37.5111C117.159 37.8888 117.294 38.1721 117.537 38.361C117.793 38.5498 118.083 38.6443 118.407 38.6443C118.785 38.6443 119.129 38.5836 119.439 38.4622C119.749 38.3272 119.938 38.2328 120.006 38.1788L120.37 39.2918Z" fill="white"/>
<path d="M137.772 39.7977H136.396V33.909C136.396 32.6814 136.2 31.7775 135.809 31.1974C135.418 30.6173 134.838 30.3272 134.069 30.3272C133.273 30.3272 132.558 30.6106 131.924 31.1772C131.303 31.7438 130.865 32.4723 130.609 33.3627V39.7977H129.232V33.909C129.232 32.6679 129.044 31.764 128.666 31.1974C128.288 30.6173 127.708 30.3272 126.926 30.3272C126.143 30.3272 125.435 30.6038 124.801 31.1569C124.167 31.71 123.721 32.4385 123.465 33.3424V39.7977H122.089V29.2547H123.344V31.6426C123.789 30.8197 124.356 30.1856 125.044 29.7404C125.745 29.2952 126.521 29.0726 127.371 29.0726C128.248 29.0726 128.956 29.3222 129.496 29.8213C130.035 30.3205 130.366 30.9748 130.487 31.7842C130.973 30.8939 131.553 30.2193 132.227 29.7606C132.915 29.302 133.691 29.0726 134.555 29.0726C135.148 29.0726 135.647 29.1805 136.052 29.3964C136.47 29.6122 136.801 29.9225 137.044 30.3272C137.3 30.7185 137.482 31.1974 137.59 31.764C137.711 32.3171 137.772 32.9377 137.772 33.6257V39.7977Z" fill="white"/>
<path d="M145.238 40.0001C144.483 40.0001 143.781 39.8584 143.134 39.5751C142.486 39.2783 141.926 38.8804 141.454 38.3812C140.982 37.8686 140.611 37.2817 140.341 36.6207C140.085 35.9596 139.956 35.2514 139.956 34.4959C139.956 33.5111 140.179 32.6072 140.624 31.7842C141.083 30.9613 141.71 30.307 142.506 29.8213C143.302 29.3222 144.206 29.0726 145.218 29.0726C146.257 29.0726 147.161 29.3222 147.929 29.8213C148.712 30.3205 149.326 30.9815 149.771 31.8045C150.216 32.6139 150.439 33.5043 150.439 34.4756C150.439 34.5836 150.439 34.6915 150.439 34.7994C150.439 34.8939 150.432 34.9681 150.419 35.022H141.393C141.461 35.7775 141.67 36.452 142.021 37.0456C142.385 37.6257 142.85 38.0912 143.417 38.4419C143.997 38.7792 144.624 38.9478 145.299 38.9478C145.987 38.9478 146.634 38.7724 147.241 38.4217C147.862 38.0709 148.294 37.6122 148.537 37.0456L149.731 37.3694C149.515 37.8686 149.184 38.3205 148.739 38.7252C148.294 39.1299 147.768 39.447 147.161 39.6763C146.567 39.8922 145.926 40.0001 145.238 40.0001ZM141.353 34.0304H149.144C149.09 33.2615 148.881 32.5869 148.516 32.0068C148.166 31.4267 147.7 30.9748 147.12 30.651C146.553 30.3138 145.926 30.1451 145.238 30.1451C144.55 30.1451 143.923 30.3138 143.356 30.651C142.79 30.9748 142.324 31.4335 141.96 32.0271C141.609 32.6072 141.407 33.275 141.353 34.0304Z" fill="white"/>
<path d="M161.425 39.7977H160.049V33.909C160.049 32.6679 159.867 31.764 159.503 31.1974C159.139 30.6173 158.565 30.3272 157.783 30.3272C157.243 30.3272 156.71 30.4622 156.184 30.732C155.658 30.9883 155.193 31.3458 154.788 31.8045C154.397 32.2497 154.113 32.7623 153.938 33.3424V39.7977H152.562V29.2547H153.816V31.6426C154.1 31.1299 154.471 30.6848 154.929 30.307C155.388 29.9158 155.908 29.6122 156.488 29.3964C157.068 29.1805 157.668 29.0726 158.289 29.0726C158.869 29.0726 159.361 29.1805 159.766 29.3964C160.171 29.6122 160.494 29.9225 160.737 30.3272C160.98 30.7185 161.155 31.1974 161.263 31.764C161.371 32.3171 161.425 32.9377 161.425 33.6257V39.7977Z" fill="white"/>
<path d="M169.32 39.2918C169.212 39.3323 169.043 39.4065 168.814 39.5144C168.585 39.6224 168.308 39.7168 167.984 39.7977C167.66 39.8787 167.31 39.9192 166.932 39.9192C166.541 39.9192 166.17 39.845 165.819 39.6966C165.482 39.5482 165.212 39.3256 165.01 39.0288C164.807 38.7185 164.706 38.3407 164.706 37.8955V30.3475H163.249V29.2547H164.706V25.6932H166.082V29.2547H168.51V30.3475H166.082V37.5111C166.109 37.8888 166.244 38.1721 166.487 38.361C166.743 38.5498 167.033 38.6443 167.357 38.6443C167.735 38.6443 168.079 38.5836 168.389 38.4622C168.699 38.3272 168.888 38.2328 168.956 38.1788L169.32 39.2918Z" fill="white"/>
<path d="M57.9555 39.7976H50.8729L37.9722 21.9351L28.9504 31.0287L25.915 26.9815L31.6486 20.6108L50.1983 0H57.2809L41.4293 17.5379L57.9555 39.7976Z" fill="white"/>
</svg>
