<svg width="152" height="110" viewBox="0 0 152 110" fill="none" xmlns="http://www.w3.org/2000/svg">
<path d="M0 108.9V93.27H2.04V108.9H0ZM0 90V87H2.04V90H0Z" fill="white"/>
<path d="M19.6732 108.9H17.6332V100.17C17.6332 98.33 17.3632 96.99 16.8232 96.15C16.2832 95.29 15.4332 94.86 14.2732 94.86C13.4732 94.86 12.6832 95.06 11.9032 95.46C11.1232 95.84 10.4332 96.37 9.8332 97.05C9.2532 97.71 8.8332 98.47 8.5732 99.33V108.9H6.5332V93.27H8.3932V96.81C8.8132 96.05 9.3632 95.39 10.0432 94.83C10.7232 94.25 11.4932 93.8 12.3532 93.48C13.2132 93.16 14.1032 93 15.0232 93C15.8832 93 16.6132 93.16 17.2132 93.48C17.8132 93.8 18.2932 94.26 18.6532 94.86C19.0132 95.44 19.2732 96.15 19.4332 96.99C19.5932 97.81 19.6732 98.73 19.6732 99.75V108.9Z" fill="white"/>
<path d="M28.3512 108.9L22.0212 93.27H24.1512L29.4912 106.86L34.8612 93.27H36.8712L30.5412 108.9H28.3512Z" fill="white"/>
<path d="M45.9199 109.2C44.7999 109.2 43.7599 108.99 42.7999 108.57C41.8399 108.13 41.0099 107.54 40.3099 106.8C39.6099 106.04 39.0599 105.17 38.6599 104.19C38.2799 103.21 38.0899 102.16 38.0899 101.04C38.0899 99.58 38.4199 98.24 39.0799 97.02C39.7599 95.8 40.6899 94.83 41.8699 94.11C43.0499 93.37 44.3899 93 45.8899 93C47.4299 93 48.7699 93.37 49.9099 94.11C51.0699 94.85 51.9799 95.83 52.6399 97.05C53.2999 98.25 53.6299 99.57 53.6299 101.01C53.6299 101.17 53.6299 101.33 53.6299 101.49C53.6299 101.63 53.6199 101.74 53.5999 101.82H40.2199C40.3199 102.94 40.6299 103.94 41.1499 104.82C41.6899 105.68 42.3799 106.37 43.2199 106.89C44.0799 107.39 45.0099 107.64 46.0099 107.64C47.0299 107.64 47.9899 107.38 48.8899 106.86C49.8099 106.34 50.4499 105.66 50.8099 104.82L52.5799 105.3C52.2599 106.04 51.7699 106.71 51.1099 107.31C50.4499 107.91 49.6699 108.38 48.7699 108.72C47.8899 109.04 46.9399 109.2 45.9199 109.2ZM40.1599 100.35H51.7099C51.6299 99.21 51.3199 98.21 50.7799 97.35C50.2599 96.49 49.5699 95.82 48.7099 95.34C47.8699 94.84 46.9399 94.59 45.9199 94.59C44.8999 94.59 43.9699 94.84 43.1299 95.34C42.2899 95.82 41.5999 96.5 41.0599 97.38C40.5399 98.24 40.2399 99.23 40.1599 100.35Z" fill="white"/>
<path d="M61.9073 109.2C60.6273 109.2 59.4373 108.99 58.3373 108.57C57.2373 108.15 56.2873 107.51 55.4873 106.65L56.3273 105.21C57.2073 106.03 58.0873 106.63 58.9673 107.01C59.8673 107.37 60.8173 107.55 61.8173 107.55C63.0373 107.55 64.0273 107.31 64.7873 106.83C65.5473 106.33 65.9273 105.62 65.9273 104.7C65.9273 104.08 65.7373 103.61 65.3573 103.29C64.9973 102.95 64.4673 102.68 63.7673 102.48C63.0873 102.26 62.2673 102.03 61.3073 101.79C60.2273 101.49 59.3173 101.18 58.5773 100.86C57.8573 100.52 57.3073 100.1 56.9273 99.6C56.5673 99.08 56.3873 98.41 56.3873 97.59C56.3873 96.57 56.6373 95.73 57.1373 95.07C57.6573 94.39 58.3573 93.88 59.2373 93.54C60.1373 93.18 61.1373 93 62.2373 93C63.4373 93 64.4973 93.19 65.4173 93.57C66.3373 93.95 67.0873 94.48 67.6673 95.16L66.6773 96.54C66.1173 95.9 65.4473 95.43 64.6673 95.13C63.9073 94.81 63.0573 94.65 62.1173 94.65C61.4773 94.65 60.8673 94.74 60.2873 94.92C59.7073 95.08 59.2273 95.36 58.8473 95.76C58.4873 96.14 58.3073 96.67 58.3073 97.35C58.3073 97.91 58.4473 98.35 58.7273 98.67C59.0073 98.97 59.4273 99.23 59.9873 99.45C60.5473 99.65 61.2373 99.87 62.0573 100.11C63.2373 100.43 64.2673 100.76 65.1473 101.1C66.0273 101.42 66.7073 101.84 67.1873 102.36C67.6673 102.88 67.9073 103.61 67.9073 104.55C67.9073 106.01 67.3573 107.15 66.2573 107.97C65.1573 108.79 63.7073 109.2 61.9073 109.2Z" fill="white"/>
<path d="M78.7793 108.15C78.6193 108.21 78.3693 108.32 78.0293 108.48C77.6893 108.64 77.2793 108.78 76.7993 108.9C76.3193 109.02 75.7993 109.08 75.2393 109.08C74.6593 109.08 74.1093 108.97 73.5893 108.75C73.0893 108.53 72.6893 108.2 72.3893 107.76C72.0893 107.3 71.9393 106.74 71.9393 106.08V94.89H69.7793V93.27H71.9393V87.99H73.9793V93.27H77.5793V94.89H73.9793V105.51C74.0193 106.07 74.2193 106.49 74.5793 106.77C74.9593 107.05 75.3893 107.19 75.8693 107.19C76.4293 107.19 76.9393 107.1 77.3993 106.92C77.8593 106.72 78.1393 106.58 78.2393 106.5L78.7793 108.15Z" fill="white"/>
<path d="M104.578 108.9H102.538V100.17C102.538 98.35 102.248 97.01 101.668 96.15C101.088 95.29 100.228 94.86 99.0881 94.86C97.9081 94.86 96.8481 95.28 95.9081 96.12C94.9881 96.96 94.3381 98.04 93.9581 99.36V108.9H91.9181V100.17C91.9181 98.33 91.6381 96.99 91.0781 96.15C90.5181 95.29 89.6581 94.86 88.4981 94.86C87.3381 94.86 86.2881 95.27 85.3481 96.09C84.4081 96.91 83.7481 97.99 83.3681 99.33V108.9H81.3281V93.27H83.1881V96.81C83.8481 95.59 84.6881 94.65 85.7081 93.99C86.7481 93.33 87.8981 93 89.1581 93C90.4581 93 91.5081 93.37 92.3081 94.11C93.1081 94.85 93.5981 95.82 93.7781 97.02C94.4981 95.7 95.3581 94.7 96.3581 94.02C97.3781 93.34 98.5281 93 99.8081 93C100.688 93 101.428 93.16 102.028 93.48C102.648 93.8 103.138 94.26 103.498 94.86C103.878 95.44 104.148 96.15 104.308 96.99C104.488 97.81 104.578 98.73 104.578 99.75V108.9Z" fill="white"/>
<path d="M115.646 109.2C114.526 109.2 113.486 108.99 112.526 108.57C111.566 108.13 110.736 107.54 110.036 106.8C109.336 106.04 108.786 105.17 108.386 104.19C108.006 103.21 107.816 102.16 107.816 101.04C107.816 99.58 108.146 98.24 108.806 97.02C109.486 95.8 110.416 94.83 111.596 94.11C112.776 93.37 114.116 93 115.616 93C117.156 93 118.496 93.37 119.636 94.11C120.796 94.85 121.706 95.83 122.366 97.05C123.026 98.25 123.356 99.57 123.356 101.01C123.356 101.17 123.356 101.33 123.356 101.49C123.356 101.63 123.346 101.74 123.326 101.82H109.946C110.046 102.94 110.356 103.94 110.876 104.82C111.416 105.68 112.106 106.37 112.946 106.89C113.806 107.39 114.736 107.64 115.736 107.64C116.756 107.64 117.716 107.38 118.616 106.86C119.536 106.34 120.176 105.66 120.536 104.82L122.306 105.3C121.986 106.04 121.496 106.71 120.836 107.31C120.176 107.91 119.396 108.38 118.496 108.72C117.616 109.04 116.666 109.2 115.646 109.2ZM109.886 100.35H121.436C121.356 99.21 121.046 98.21 120.506 97.35C119.986 96.49 119.296 95.82 118.436 95.34C117.596 94.84 116.666 94.59 115.646 94.59C114.626 94.59 113.696 94.84 112.856 95.34C112.016 95.82 111.326 96.5 110.786 97.38C110.266 98.24 109.966 99.23 109.886 100.35Z" fill="white"/>
<path d="M139.644 108.9H137.604V100.17C137.604 98.33 137.334 96.99 136.794 96.15C136.254 95.29 135.404 94.86 134.244 94.86C133.444 94.86 132.654 95.06 131.874 95.46C131.094 95.84 130.404 96.37 129.804 97.05C129.224 97.71 128.804 98.47 128.544 99.33V108.9H126.504V93.27H128.364V96.81C128.784 96.05 129.334 95.39 130.014 94.83C130.694 94.25 131.464 93.8 132.324 93.48C133.184 93.16 134.074 93 134.994 93C135.854 93 136.584 93.16 137.184 93.48C137.784 93.8 138.264 94.26 138.624 94.86C138.984 95.44 139.244 96.15 139.404 96.99C139.564 97.81 139.644 98.73 139.644 99.75V108.9Z" fill="white"/>
<path d="M151.348 108.15C151.188 108.21 150.938 108.32 150.598 108.48C150.258 108.64 149.848 108.78 149.368 108.9C148.888 109.02 148.368 109.08 147.808 109.08C147.228 109.08 146.678 108.97 146.158 108.75C145.658 108.53 145.258 108.2 144.958 107.76C144.658 107.3 144.508 106.74 144.508 106.08V94.89H142.348V93.27H144.508V87.99H146.548V93.27H150.148V94.89H146.548V105.51C146.588 106.07 146.788 106.49 147.148 106.77C147.528 107.05 147.958 107.19 148.438 107.19C148.998 107.19 149.508 107.1 149.968 106.92C150.428 106.72 150.708 106.58 150.808 106.5L151.348 108.15Z" fill="white"/>
<path d="M28.1581 0.0854199H38.8946L66.8502 72H54.8982L47.3016 52.4514H19.5486L12.0533 72H0L28.1581 0.0854199ZM45.0732 44.0445L33.5264 12.5439L21.5744 44.0445H45.0732Z" fill="white"/>
<path d="M104.85 72H92.0367L68.6974 39.684L52.3757 56.1356L46.8842 48.8136L90.8164 0H103.63L74.952 31.7288L104.85 72Z" fill="white"/>
</svg>
