<svg width="170" height="40" viewBox="0 0 170 40" fill="none" xmlns="http://www.w3.org/2000/svg">
<path d="M15.5643 0.0472145H21.4988L36.9511 39.7976H30.3447L26.1457 28.9922H10.8054L6.6624 39.7976H0L15.5643 0.0472145ZM24.914 24.3454L18.5315 6.93356L11.9251 24.3454H24.914Z" fill="black"/>
<path d="M67.2303 39.7976V29.2546H68.6064V39.7976H67.2303ZM67.2303 27.0489V25.0253H68.6064V27.0489H67.2303Z" fill="black"/>
<path d="M80.5006 39.7976H79.1246V33.9089C79.1246 32.6678 78.9425 31.7639 78.5782 31.1973C78.214 30.6172 77.6406 30.3271 76.8581 30.3271C76.3185 30.3271 75.7856 30.4621 75.2595 30.7319C74.7334 30.9882 74.2679 31.3457 73.8632 31.8044C73.472 32.2496 73.1887 32.7622 73.0133 33.3423V39.7976H71.6372V29.2546H72.8919V31.6425C73.1752 31.1298 73.5462 30.6847 74.0049 30.3069C74.4635 29.9157 74.9829 29.6121 75.563 29.3963C76.1431 29.1804 76.7435 29.0725 77.364 29.0725C77.9441 29.0725 78.4366 29.1804 78.8413 29.3963C79.246 29.6121 79.5698 29.9224 79.8126 30.3271C80.0554 30.7184 80.2308 31.1973 80.3387 31.7639C80.4467 32.317 80.5006 32.9376 80.5006 33.6256V39.7976Z" fill="black"/>
<path d="M86.3542 39.7976L82.0844 29.2546H83.5212L87.1232 38.4216L90.7455 29.2546H92.1013L87.8315 39.7976H86.3542Z" fill="black"/>
<path d="M98.205 40C97.4495 40 96.748 39.8583 96.1004 39.575C95.4529 39.2782 94.893 38.8803 94.4209 38.3811C93.9487 37.8685 93.5777 37.2816 93.3079 36.6206C93.0515 35.9595 92.9234 35.2513 92.9234 34.4958C92.9234 33.511 93.146 32.6071 93.5912 31.7841C94.0499 30.9612 94.6772 30.3069 95.4731 29.8212C96.2691 29.3221 97.173 29.0725 98.1848 29.0725C99.2236 29.0725 100.127 29.3221 100.896 29.8212C101.679 30.3204 102.293 30.9814 102.738 31.8044C103.183 32.6138 103.406 33.5042 103.406 34.4755C103.406 34.5835 103.406 34.6914 103.406 34.7993C103.406 34.8938 103.399 34.968 103.385 35.0219H94.3601C94.4276 35.7774 94.6367 36.4519 94.9875 37.0455C95.3517 37.6256 95.8171 38.0911 96.3838 38.4418C96.9639 38.7791 97.5912 38.9477 98.2657 38.9477C98.9537 38.9477 99.6013 38.7723 100.208 38.4216C100.829 38.0708 101.261 37.6121 101.503 37.0455L102.697 37.3693C102.482 37.8685 102.151 38.3204 101.706 38.7251C101.261 39.1298 100.735 39.4469 100.127 39.6762C99.5338 39.8921 98.893 40 98.205 40ZM94.3197 34.0304H102.111C102.057 33.2614 101.847 32.5868 101.483 32.0067C101.132 31.4266 100.667 30.9747 100.087 30.6509C99.5203 30.3137 98.893 30.145 98.205 30.145C97.517 30.145 96.8897 30.3137 96.323 30.6509C95.7564 30.9747 95.291 31.4334 94.9268 32.027C94.576 32.6071 94.3736 33.2749 94.3197 34.0304Z" fill="black"/>
<path d="M108.989 40C108.126 40 107.323 39.8583 106.581 39.575C105.839 39.2917 105.198 38.86 104.659 38.2799L105.225 37.3086C105.819 37.8617 106.412 38.2664 107.006 38.5228C107.613 38.7656 108.254 38.887 108.928 38.887C109.751 38.887 110.419 38.7251 110.932 38.4013C111.444 38.0641 111.701 37.5852 111.701 36.9646C111.701 36.5464 111.573 36.2293 111.316 36.0135C111.073 35.7841 110.716 35.602 110.244 35.4671C109.785 35.3187 109.232 35.1636 108.584 35.0017C107.856 34.7993 107.242 34.5902 106.743 34.3744C106.257 34.145 105.886 33.8617 105.63 33.5244C105.387 33.1737 105.266 32.7218 105.266 32.1686C105.266 31.4806 105.434 30.914 105.772 30.4688C106.122 30.0101 106.594 29.6661 107.188 29.4368C107.795 29.1939 108.47 29.0725 109.212 29.0725C110.021 29.0725 110.736 29.2007 111.357 29.457C111.977 29.7133 112.483 30.0708 112.874 30.5295L112.207 31.4604C111.829 31.0287 111.377 30.7116 110.851 30.5093C110.338 30.2934 109.765 30.1855 109.131 30.1855C108.699 30.1855 108.288 30.2462 107.896 30.3676C107.505 30.4755 107.181 30.6644 106.925 30.9342C106.682 31.1906 106.561 31.5481 106.561 32.0067C106.561 32.3845 106.655 32.6813 106.844 32.8971C107.033 33.0995 107.316 33.2749 107.694 33.4233C108.072 33.5582 108.537 33.7066 109.09 33.8685C109.886 34.0843 110.581 34.3069 111.175 34.5363C111.768 34.7521 112.227 35.0354 112.551 35.3862C112.874 35.7369 113.036 36.2293 113.036 36.8634C113.036 37.8482 112.665 38.6172 111.923 39.1703C111.181 39.7234 110.203 40 108.989 40Z" fill="black"/>
<path d="M120.37 39.2917C120.262 39.3322 120.093 39.4064 119.864 39.5143C119.635 39.6223 119.358 39.7167 119.034 39.7976C118.71 39.8786 118.36 39.9191 117.982 39.9191C117.591 39.9191 117.22 39.8449 116.869 39.6965C116.532 39.5481 116.262 39.3255 116.06 39.0287C115.857 38.7184 115.756 38.3406 115.756 37.8954V30.3474H114.299V29.2546H115.756V25.6931H117.132V29.2546H119.56V30.3474H117.132V37.511C117.159 37.8887 117.294 38.172 117.537 38.3609C117.793 38.5497 118.083 38.6442 118.407 38.6442C118.785 38.6442 119.129 38.5835 119.439 38.4621C119.749 38.3271 119.938 38.2327 120.006 38.1787L120.37 39.2917Z" fill="black"/>
<path d="M137.772 39.7976H136.396V33.9089C136.396 32.6813 136.2 31.7774 135.809 31.1973C135.418 30.6172 134.838 30.3271 134.069 30.3271C133.273 30.3271 132.558 30.6105 131.924 31.1771C131.303 31.7437 130.865 32.4722 130.609 33.3626V39.7976H129.232V33.9089C129.232 32.6678 129.044 31.7639 128.666 31.1973C128.288 30.6172 127.708 30.3271 126.926 30.3271C126.143 30.3271 125.435 30.6037 124.801 31.1568C124.167 31.7099 123.721 32.4384 123.465 33.3423V39.7976H122.089V29.2546H123.344V31.6425C123.789 30.8196 124.356 30.1855 125.044 29.7403C125.745 29.2951 126.521 29.0725 127.371 29.0725C128.248 29.0725 128.956 29.3221 129.496 29.8212C130.035 30.3204 130.366 30.9747 130.487 31.7841C130.973 30.8938 131.553 30.2192 132.227 29.7605C132.915 29.3019 133.691 29.0725 134.555 29.0725C135.148 29.0725 135.647 29.1804 136.052 29.3963C136.47 29.6121 136.801 29.9224 137.044 30.3271C137.3 30.7184 137.482 31.1973 137.59 31.7639C137.711 32.317 137.772 32.9376 137.772 33.6256V39.7976Z" fill="black"/>
<path d="M145.238 40C144.483 40 143.781 39.8583 143.134 39.575C142.486 39.2782 141.926 38.8803 141.454 38.3811C140.982 37.8685 140.611 37.2816 140.341 36.6206C140.085 35.9595 139.956 35.2513 139.956 34.4958C139.956 33.511 140.179 32.6071 140.624 31.7841C141.083 30.9612 141.71 30.3069 142.506 29.8212C143.302 29.3221 144.206 29.0725 145.218 29.0725C146.257 29.0725 147.161 29.3221 147.929 29.8212C148.712 30.3204 149.326 30.9814 149.771 31.8044C150.216 32.6138 150.439 33.5042 150.439 34.4755C150.439 34.5835 150.439 34.6914 150.439 34.7993C150.439 34.8938 150.432 34.968 150.419 35.0219H141.393C141.461 35.7774 141.67 36.4519 142.021 37.0455C142.385 37.6256 142.85 38.0911 143.417 38.4418C143.997 38.7791 144.624 38.9477 145.299 38.9477C145.987 38.9477 146.634 38.7723 147.241 38.4216C147.862 38.0708 148.294 37.6121 148.537 37.0455L149.731 37.3693C149.515 37.8685 149.184 38.3204 148.739 38.7251C148.294 39.1298 147.768 39.4469 147.161 39.6762C146.567 39.8921 145.926 40 145.238 40ZM141.353 34.0304H149.144C149.09 33.2614 148.881 32.5868 148.516 32.0067C148.166 31.4266 147.7 30.9747 147.12 30.6509C146.553 30.3137 145.926 30.145 145.238 30.145C144.55 30.145 143.923 30.3137 143.356 30.6509C142.79 30.9747 142.324 31.4334 141.96 32.027C141.609 32.6071 141.407 33.2749 141.353 34.0304Z" fill="black"/>
<path d="M161.425 39.7976H160.049V33.9089C160.049 32.6678 159.867 31.7639 159.503 31.1973C159.139 30.6172 158.565 30.3271 157.783 30.3271C157.243 30.3271 156.71 30.4621 156.184 30.7319C155.658 30.9882 155.193 31.3457 154.788 31.8044C154.397 32.2496 154.113 32.7622 153.938 33.3423V39.7976H152.562V29.2546H153.816V31.6425C154.1 31.1298 154.471 30.6847 154.929 30.3069C155.388 29.9157 155.908 29.6121 156.488 29.3963C157.068 29.1804 157.668 29.0725 158.289 29.0725C158.869 29.0725 159.361 29.1804 159.766 29.3963C160.171 29.6121 160.494 29.9224 160.737 30.3271C160.98 30.7184 161.155 31.1973 161.263 31.7639C161.371 32.317 161.425 32.9376 161.425 33.6256V39.7976Z" fill="black"/>
<path d="M169.32 39.2917C169.212 39.3322 169.043 39.4064 168.814 39.5143C168.585 39.6223 168.308 39.7167 167.984 39.7976C167.66 39.8786 167.31 39.9191 166.932 39.9191C166.541 39.9191 166.17 39.8449 165.819 39.6965C165.482 39.5481 165.212 39.3255 165.01 39.0287C164.807 38.7184 164.706 38.3406 164.706 37.8954V30.3474H163.249V29.2546H164.706V25.6931H166.082V29.2546H168.51V30.3474H166.082V37.511C166.109 37.8887 166.244 38.172 166.487 38.3609C166.743 38.5497 167.033 38.6442 167.357 38.6442C167.735 38.6442 168.079 38.5835 168.389 38.4621C168.699 38.3271 168.888 38.2327 168.956 38.1787L169.32 39.2917Z" fill="black"/>
<path d="M57.9555 39.7976H50.8729L37.9722 21.9351L28.9504 31.0287L25.915 26.9815L31.6486 20.6108L50.1983 0H57.2809L41.4293 17.5379L57.9555 39.7976Z" fill="black"/>
</svg>
