<svg width="18" height="18" viewBox="0 0 18 18" fill="none" xmlns="http://www.w3.org/2000/svg">
<path d="M16.6139 2.25195H1.38608C0.622785 2.25195 0 2.87474 0 3.63803V14.3621C0 15.1254 0.622785 15.7482 1.38608 15.7482H16.6139C17.3772 15.7482 18 15.1254 18 14.3621V3.63803C18 2.87474 17.3772 2.25195 16.6139 2.25195ZM16.4127 3.27727L9.09494 9.5355L1.77722 3.27727H16.4127ZM16.9747 14.3621C16.9747 14.5595 16.8114 14.7228 16.6139 14.7228H1.38608C1.18861 14.7228 1.02532 14.5595 1.02532 14.3621V3.9836L8.76076 10.5988C8.76456 10.6026 8.77215 10.6064 8.77595 10.6102C8.77975 10.614 8.78734 10.6178 8.79114 10.6216C8.80253 10.6292 8.81013 10.6368 8.82152 10.6406C8.82532 10.6444 8.82911 10.6444 8.83291 10.6482C8.8481 10.6558 8.86329 10.6633 8.87848 10.6709C8.88228 10.6709 8.88608 10.6747 8.88987 10.6747C8.90127 10.6785 8.91266 10.6861 8.92785 10.6899C8.93165 10.6899 8.93924 10.6937 8.94304 10.6937C8.95443 10.6975 8.96582 10.7013 8.97721 10.7013C8.98101 10.7013 8.98861 10.7051 8.9924 10.7051C9.0038 10.7089 9.01899 10.7089 9.03038 10.7127C9.03418 10.7127 9.03797 10.7127 9.04177 10.7127C9.05696 10.7127 9.07595 10.7165 9.09114 10.7165C9.10633 10.7165 9.12532 10.7165 9.14051 10.7127C9.1443 10.7127 9.1481 10.7127 9.1519 10.7127C9.16329 10.7127 9.17848 10.7089 9.18987 10.7051C9.19367 10.7051 9.20127 10.7013 9.20506 10.7013C9.21646 10.6975 9.22785 10.6937 9.23924 10.6937C9.24304 10.6937 9.25063 10.6899 9.25443 10.6899C9.26582 10.6861 9.27722 10.6823 9.2924 10.6747C9.2962 10.6747 9.3 10.6709 9.3038 10.6709C9.31899 10.6633 9.33418 10.6558 9.34937 10.6482C9.35316 10.6444 9.35696 10.6444 9.36076 10.6406C9.37215 10.633 9.37975 10.6292 9.39114 10.6216C9.39494 10.6178 9.40253 10.614 9.40633 10.6102C9.41013 10.6064 9.41772 10.6026 9.42152 10.5988L16.9747 4.14689V14.3621Z" fill="black"/>
</svg>
