<svg width="18" height="18" viewBox="0 0 18 18" fill="none" xmlns="http://www.w3.org/2000/svg">
<g clip-path="url(#clip0_48_45)">
<path d="M8.99999 0C5.2456 0 2.19122 3.05443 2.19122 6.80876C2.19122 8.35735 3.25866 10.6219 5.3638 13.5395C6.88575 15.6488 8.38314 17.3154 8.44611 17.3853L9.00004 18L9.55396 17.3853C9.61694 17.3154 11.1143 15.6488 12.6363 13.5395C14.7414 10.6219 15.8089 8.3574 15.8089 6.80876C15.8088 3.05443 12.7544 0 8.99999 0ZM8.99999 15.7547C7.12443 13.5621 3.6824 9.07063 3.6824 6.80876C3.6824 3.87666 6.06784 1.49118 8.99999 1.49118C11.9321 1.49118 14.3176 3.87666 14.3176 6.80876C14.3176 9.07063 10.8755 13.5621 8.99999 15.7547Z" fill="black"/>
<path d="M9 9.27899C10.3642 9.27899 11.4702 8.17305 11.4702 6.80881C11.4702 5.44456 10.3642 4.33862 9 4.33862C7.63575 4.33862 6.52982 5.44456 6.52982 6.80881C6.52982 8.17305 7.63575 9.27899 9 9.27899Z" fill="black"/>
</g>
<defs>
<clipPath id="clip0_48_45">
<rect width="18" height="18" fill="white"/>
</clipPath>
</defs>
</svg>
